HIERARCHY
ROOT hip
{
	OFFSET 0.000000 0.000000 0.000000 
	CHANNELS 6 Xposition Yposition Zposition Xrotation Zrotation Yrotation
	JOINT abdomen
	{
		OFFSET 0.000000 3.402643 0.000000 
		CHANNELS 3 Xrotation Zrotation Yrotation
		JOINT chest
		{
			OFFSET 0.000000 8.438565 -0.680529 
			CHANNELS 3 Xrotation Zrotation Yrotation
			JOINT neck
			{
				OFFSET 0.000000 10.207942 -0.272212 
				CHANNELS 3 Xrotation Zrotation Yrotation
				JOINT head
				{
					OFFSET 0.000000 3.130431 0.000000 
					CHANNELS 3 Xrotation Zrotation Yrotation
					End Site
					{
						OFFSET 0.000000 3.130435 0.000000 
					}
				}
			}
			JOINT lCollar
			{
				OFFSET 3.470700 6.669187 -0.816635 
				CHANNELS 3 Yrotation Zrotation Xrotation
				JOINT lShldr
				{
					OFFSET 3.198488 0.000000 0.000000 
					CHANNELS 3 Zrotation Yrotation Xrotation
					JOINT lForeArm
					{
						OFFSET 10.139888 0.000000 0.000000 
						CHANNELS 3 Yrotation Zrotation Xrotation
						JOINT lHand
						{
							OFFSET 8.370511 0.000000 0.000000 
							CHANNELS 3 Zrotation Yrotation Xrotation
							End Site
							{
								OFFSET 4.083176 0.000000 0.000000 
							}
						}
					}
				}
			}
			JOINT rCollar
			{
				OFFSET -3.470700 6.669187 -0.816635 
				CHANNELS 3 Yrotation Zrotation Xrotation
				JOINT rShldr
				{
					OFFSET -3.198488 0.000000 0.000000 
					CHANNELS 3 Zrotation Yrotation Xrotation
					JOINT rForeArm
					{
						OFFSET -10.139888 0.000000 0.000000 
						CHANNELS 3 Yrotation Zrotation Xrotation
						JOINT rHand
						{
							OFFSET -8.370511 0.000000 0.000000 
							CHANNELS 3 Zrotation Yrotation Xrotation
							End Site
							{
								OFFSET -4.083176 0.000000 0.000000 
							}
						}
					}
				}
			}
		}
	}
	JOINT lThigh
	{
		OFFSET 5.308129 -1.633274 1.361059 
		CHANNELS 3 Xrotation Zrotation Yrotation
		JOINT lShin
		{
			OFFSET -2.041588 -20.007561 0.000000 
			CHANNELS 3 Xrotation Zrotation Yrotation
			JOINT lFoot
			{
				OFFSET 0.000000 -19.190928 -1.224953 
				CHANNELS 3 Xrotation Yrotation Zrotation
				End Site
				{
					OFFSET 0.000000 -2.449906 4.627600 
				}
			}
		}
	}
	JOINT rThigh
	{
		OFFSET -5.308129 -1.633274 1.361059 
		CHANNELS 3 Xrotation Zrotation Yrotation
		JOINT rShin
		{
			OFFSET 2.041588 -20.007561 0.000000 
			CHANNELS 3 Xrotation Zrotation Yrotation
			JOINT rFoot
			{
				OFFSET 0.000000 -19.190928 -1.224953 
				CHANNELS 3 Xrotation Yrotation Zrotation
				End Site
				{
					OFFSET 0.000000 -2.449906 4.627600 
				}
			}
		}
	}
}
MOTION
Frames: 18
Frame Time: 0.033333
-4.527901 30.449312 -5.282544 0.009766 -1.708984 31.679691 30.654299 -9.707031 -4.669615 -24.951172 8.300782 22.753904 -8.603516 0.000000 0.000000 14.570312 8.085938 24.648439 1.992188 -2.001953 0.000341 -71.445305 -60.410156 -57.762398 -7.783204 -1.796875 0.009766 1.748047 -3.291016 0.058033 -2.001953 1.992188 0.000000 153.408203 53.144535 50.876953 -0.654297 1.767578 0.029297 -1.787109 3.261719 0.048828 -15.174722 28.276030 16.494307 23.609867 -3.790187 -1.822300 -1.219406 0.873964 -0.056440 -1.396905 -21.072838 -14.108087 29.137081 3.540865 2.095602 -2.654922 1.208865 -0.004545 
-4.424352 30.370161 -5.225094 -1.240234 0.029297 30.087893 30.654299 -9.707031 -4.669615 -24.394531 9.101563 21.105062 -8.603516 0.000000 0.000000 17.832029 8.759766 26.914063 1.992188 -2.001953 0.000341 -59.238277 -61.367188 -64.510521 -0.859375 -1.796875 0.029297 1.748047 -3.291016 0.058033 -2.001953 1.992188 0.000000 154.541016 52.675785 58.113235 0.644531 1.767578 0.028996 -1.787109 3.261719 0.048828 -12.831964 27.879345 17.608269 25.120998 -3.731272 -1.902539 -2.347901 1.500687 -0.026982 -0.518974 -22.151392 -12.407862 29.938156 3.492139 2.161418 -2.793430 1.359693 0.016391 
-4.326601 30.353182 -5.161480 -2.265625 1.386719 28.349846 30.654299 -9.707031 -4.669615 -24.238281 10.166015 18.976334 -8.603516 0.000000 0.000000 20.498047 8.945313 29.628906 1.992188 -2.001953 0.000341 -47.275391 -60.312504 -67.342468 3.505859 -1.787109 0.049133 1.748047 -3.291016 0.058033 -2.001953 1.992188 0.000000 -26.757807 128.222656 -112.404434 6.015625 1.767578 0.009464 -1.787109 3.261719 0.048828 -10.634781 27.509367 18.514732 26.189384 -3.711351 -1.976655 -3.058142 2.505232 0.004130 0.155355 -23.033941 -10.786145 30.205671 3.481923 2.149527 -2.816163 1.669901 0.058715 
-4.243709 30.359055 -5.099869 -3.066406 2.431641 26.553148 30.654299 -9.707031 -4.669615 -24.423830 11.386719 16.689457 -8.603516 0.000000 0.000000 22.265625 8.632813 32.236332 1.992188 -2.001953 0.000341 -37.841797 -57.646481 -67.410583 4.990234 -1.796875 0.049134 1.748047 -3.291016 0.058033 -2.001953 1.992188 0.000000 -28.486322 128.798828 -102.687698 13.046875 1.767578 0.000000 -1.787109 3.261719 0.048828 -8.750128 27.087778 19.314020 26.932913 -3.682336 -2.015238 -3.408561 3.666917 -0.003633 0.526441 -23.835258 -9.329731 30.166349 3.481971 2.146699 -2.868838 2.207569 0.015245 
-4.183106 30.352289 -5.043303 -3.583984 3.339844 24.863850 30.654299 -9.707031 -4.669615 -24.785156 12.578126 14.462892 -8.603516 0.000000 0.000000 23.085939 7.958984 34.474003 1.992188 -2.001953 0.000341 -31.132813 -54.267578 -66.638786 4.667969 -1.787109 0.048828 1.748047 -3.291016 0.058033 -2.001953 1.992188 0.000000 -28.994137 128.369141 -93.849762 19.472654 1.757813 -0.029297 -1.787109 3.261719 0.048828 -7.138866 26.569399 20.038931 27.407005 -3.662443 -2.084805 -3.494974 4.881573 -0.004526 0.643801 -24.638523 -8.106252 30.098171 3.462563 2.175761 -2.927895 2.792814 0.044732 
-4.149250 30.316160 -4.993271 -3.974609 4.199219 23.369854 30.654299 -9.707031 -4.669615 -25.136719 13.613280 12.316752 -8.603516 0.000000 0.000000 23.085939 7.050781 36.397682 1.992188 -2.001953 0.000341 -26.103514 -50.791016 -66.238037 3.896484 -1.787109 0.048828 1.748047 -3.291016 0.058033 -2.001953 1.992188 0.000000 -27.646482 126.923836 -85.880867 24.462889 1.757813 -0.029297 -1.787109 3.261719 0.048828 -5.781718 25.972956 20.672993 27.762924 -3.663145 -2.071978 -3.556582 5.915611 -0.046751 0.506859 -25.486300 -6.885434 30.234755 3.472475 2.188143 -3.158324 3.268642 0.014168 
-4.141718 30.254753 -4.953594 -4.287109 5.058594 22.110235 30.654299 -9.707031 -4.669615 -25.302734 14.414063 10.146484 -8.603516 0.000000 0.000000 22.529297 6.142578 38.292061 1.992188 -2.001953 0.000341 -21.660156 -47.402344 -66.472031 3.476563 -1.787109 0.048828 1.748047 -3.291016 0.058033 -2.001953 1.992188 0.000000 -24.912113 124.921875 -78.193359 28.291016 1.757813 -0.049128 -1.787109 3.261719 0.048828 -4.590879 25.308245 21.489159 28.040756 -3.634223 -2.124990 -3.714419 6.508048 -0.034333 0.302050 -26.353027 -5.631049 30.539049 3.472770 2.219928 -3.389007 3.543868 0.018757 
-4.154000 30.185816 -4.929911 -4.599609 5.947266 21.133823 30.654299 -9.707031 -4.669615 -25.283203 15.019533 7.871094 -8.603516 0.000000 0.000000 21.826172 5.410156 40.332031 1.992188 -2.001953 0.000341 -17.500000 -43.974609 -67.008736 3.476563 -1.787109 0.048828 1.748047 -3.291016 0.058033 -2.001953 1.992188 0.000000 -21.621096 122.626945 -70.419922 31.650391 1.757813 -0.058594 -1.787109 3.261719 0.048828 -3.535588 24.705811 22.370630 28.226444 -3.643163 -2.150387 -3.920136 6.793144 0.012553 0.077809 -27.126406 -4.411931 30.963539 3.463698 2.219058 -3.597483 3.674770 0.026694 
-4.174553 30.130028 -4.926084 -4.843750 6.757813 20.302736 30.654299 -9.707031 -4.669615 -25.185547 15.419922 5.546875 -8.603516 0.000000 0.000000 21.298826 4.951172 42.460938 1.992188 -2.001953 0.000341 -13.808594 -40.498047 -67.506348 3.632812 -1.796875 0.048828 1.748047 -3.291016 0.058033 -2.001953 1.992188 0.000000 -18.896479 120.244141 -63.018906 35.234379 1.738281 -0.058890 -1.787109 3.261719 0.048828 -2.597898 24.179787 23.404280 28.416044 -3.642056 -2.095806 -4.052521 6.608670 -0.036695 -0.156699 -27.793453 -3.279276 31.417685 3.433981 2.264066 -3.710300 3.668763 0.027519 
-4.190690 30.103346 -4.941184 -5.117188 7.460938 19.560150 30.654299 -9.707031 -4.669615 -25.185547 15.673829 3.320312 -8.603516 0.000000 0.000000 21.152344 4.853516 44.501953 1.992188 -2.001953 0.000341 -10.917968 -37.021488 -67.847679 3.759766 -1.787109 0.048828 1.748047 -3.291016 0.058033 -2.001953 1.992188 0.000000 -17.597664 117.675789 -57.060543 39.482422 1.738281 -0.068359 -1.787109 3.261719 0.048828 -1.681839 23.685558 24.655510 28.485907 -3.633912 -2.098943 -4.206260 6.226513 -0.008968 -0.410350 -28.395035 -2.204729 31.793200 3.424555 2.249745 -3.812313 3.634408 0.006232 
-4.193244 30.111897 -4.969512 -5.302734 8.115234 18.809971 30.654299 -9.707031 -4.669615 -25.263672 15.722656 1.447959 -8.603516 0.000000 0.000000 21.464844 5.107422 46.289928 1.992188 -2.001953 0.000341 -8.720703 -33.740234 -68.095703 3.759766 -1.787109 0.048828 1.748047 -3.291016 0.058033 -2.001953 1.992188 0.000000 -17.773432 114.833992 -53.155197 44.599613 1.728516 -0.078420 -1.787109 3.261719 0.048828 -0.822926 23.147865 25.926752 28.407518 -3.633713 -2.083437 -4.212462 5.830616 0.004427 -0.673594 -28.954111 -1.296477 31.989372 3.412447 2.299565 -3.930548 3.561982 0.021937 
-4.179034 30.150579 -5.003471 -5.458984 8.720703 18.028826 30.654299 -9.707031 -4.669615 -25.380857 15.556641 -0.046209 -8.603516 0.000000 0.000000 21.972656 5.664063 47.754868 1.992188 -2.001953 0.000341 -6.894531 -30.898438 -68.349609 3.710938 -1.787109 0.049133 1.748047 -3.291016 0.058033 -2.001953 1.992188 0.000000 -18.466791 111.621094 -50.674511 50.478516 1.728516 -0.088185 -1.787109 3.261719 0.048828 0.077613 22.548977 27.092308 28.217020 -3.651226 -2.112679 -4.172346 5.543555 -0.044681 -0.877826 -29.502800 -0.550865 32.058010 3.387699 2.365898 -4.038019 3.526087 0.010244 
-4.149481 30.205095 -5.036422 -5.703125 9.335938 17.286741 30.654299 -9.707031 -4.669615 -25.351563 15.283204 -1.130239 -8.603516 0.000000 0.000000 22.333982 6.298828 48.994141 1.992188 -2.001953 0.000341 -5.146484 -28.671873 -68.617966 3.662109 -1.796875 0.048828 1.748047 -3.291016 0.058033 -2.001953 1.992188 0.000000 -18.124994 107.851563 -48.045929 56.738281 1.708984 -0.088182 -1.787109 3.261719 0.048828 0.936122 21.931444 28.033995 28.039946 -3.652656 -2.090345 -4.071074 5.384054 -0.043310 -0.946812 -30.042887 0.140088 31.989260 3.402609 2.326075 -4.161001 3.546555 0.012372 
-4.107134 30.259350 -5.063882 -5.957031 9.824219 16.691120 30.654299 -9.707031 -4.669615 -25.175781 15.048828 -1.923828 -8.603516 0.000000 0.000000 22.314451 6.835937 50.136719 1.992188 -2.001953 0.000341 -3.330078 -27.070311 -68.906250 3.652344 -1.787109 0.049133 1.748047 -3.291016 0.058033 -2.001953 1.992188 0.000000 -16.367191 103.593750 -44.707031 62.861332 1.699219 -0.088180 -1.787109 3.261719 0.048828 1.694131 21.379101 28.702749 27.961067 -3.653456 -2.084783 -4.082456 5.329274 -0.033314 -0.858429 -30.521772 0.544072 31.833313 3.368179 2.363907 -4.261085 3.619796 0.046337 
-4.053298 30.301991 -5.083453 -6.269531 10.234375 16.181639 30.654299 -9.707031 -4.669615 -24.863281 15.029297 -2.519531 -8.603516 0.000000 0.000000 21.914063 7.089844 51.329334 1.992188 -2.001953 0.000341 -1.611328 -25.937498 -69.218750 3.662109 -1.796875 0.048828 1.748047 -3.291016 0.058033 -2.001953 1.992188 0.000000 -15.722653 99.189453 -43.017704 68.349609 1.679688 -0.107422 -1.787109 3.261719 0.048828 2.293015 20.964073 29.128384 27.991739 -3.652638 -2.057608 -4.162336 5.408385 -0.028090 -0.682853 -30.895004 0.945479 31.695507 3.368127 2.363736 -4.316362 3.667025 -0.006478 
-3.988547 30.330202 -5.094458 -6.630859 10.576172 15.742189 30.654299 -9.707031 -4.669615 -24.531250 15.234375 -3.024778 -8.603516 0.000000 0.000000 21.357422 7.031250 52.520725 1.992188 -2.001953 0.000341 -0.097656 -25.117188 -69.521484 3.662109 -1.796875 0.048828 1.748047 -3.291016 0.058033 -2.001953 1.992188 0.000000 -22.080084 95.302734 -48.925777 72.919930 1.679688 -0.107708 -1.787109 3.261719 0.048828 2.789792 20.669338 29.411495 28.220919 -3.623900 -2.086959 -4.371163 5.621979 -0.023178 -0.487393 -31.202831 1.416037 31.627327 3.373203 2.331017 -4.292456 3.688478 0.023307 
-3.914745 30.345264 -5.097227 -6.982422 10.888672 15.304581 30.654299 -9.707031 -4.669615 -24.267578 15.546875 -3.505860 -8.603516 0.000000 0.000000 20.986328 6.777344 53.624203 1.992188 -2.001953 0.000341 1.123047 -24.404297 -69.824219 3.662109 -1.796875 0.048828 1.748047 -3.291016 0.058033 -2.001953 1.992188 0.000000 -41.416008 92.636719 -68.427742 76.630859 1.669922 -0.107422 -1.787109 3.261719 0.048828 3.250714 20.379349 29.529179 28.584679 -3.633995 -2.097059 -4.597717 5.896835 -0.000857 -0.311816 -31.468065 2.032962 31.635643 3.392745 2.327128 -4.267956 3.635858 -0.020625 
-3.836385 30.348969 -5.091444 -7.353516 11.201171 14.873048 30.654299 -9.707031 -4.669615 -24.189455 15.781251 -4.013672 -8.603516 0.000000 0.000000 21.025391 6.572265 54.511719 1.992188 -2.001953 0.000341 2.109375 -23.779167 -70.150322 3.632812 -1.796875 0.048828 1.748047 -3.291016 0.058033 -2.001953 1.992188 0.000000 104.277344 88.222656 76.660149 79.648438 1.650391 -0.107422 -1.787109 3.261719 0.048828 3.611658 20.077053 29.541914 28.963408 -3.604629 -2.078586 -4.670092 6.172803 0.015463 -0.185329 -31.745083 2.729329 31.687265 3.373405 2.306179 -4.270856 3.529901 0.019229 
